{
  "title": "MotoGP 2015 Round 02 - MotoGP RACE - Austin 720p",
  "uid": 11812487,
  "size": 2617109178,
  "categoryP": "video",
  "categoryS": "hd___tv_shows",
  "magnet": "?xt=urn:btih:ef5f2a8434f76291a37257e93d4086f972d36551&amp;dn=MotoGP+2015+Round+02+-+MotoGP+RACE+-+Austin+720p&amp;tr=udp%3A%2F%2Ftracker.openbittorrent.com%3A80&amp;tr=udp%3A%2F%2Fopen.demonii.com%3A1337&amp;tr=udp%3A%2F%2Ftracker.coppersurfer.tk%3A6969&amp;tr=udp%3A%2F%2Fexodus.desync.com%3A6969",
  "seeders": 38,
  "leechers": 23,
  "uploader": "vickey1992",
  "files": 2,
  "time": 1428937924,
  "description": "MotoGP 2015 Round 02 - MotoGP RACE - Austin 720p\n\nOfficial MotoGP.com feed (English).\n\nStream #0:0: Video: h264 (Main), yuv420p, 1280x720 [SAR 1:1 DAR 16:9]\n2305 kb/s, 25 fps, 25 tbr, 1k tbn, 50 tbc\n\nStream #0:1: Audio: aac (faac) , 48000 Hz, stereo, fltp, 96kbps\n\nEnjoy!",
  "parsed": {
    "xt": "urn:btih:ef5f2a8434f76291a37257e93d4086f972d36551",
    "dn": "MotoGP 2015 Round 02 - MotoGP RACE - Austin 720p",
    "tr": [
      "udp://exodus.desync.com:6969",
      "udp://open.demonii.com:1337",
      "udp://tracker.coppersurfer.tk:6969",
      "udp://tracker.openbittorrent.com:80"
    ],
    "infoHash": "ef5f2a8434f76291a37257e93d4086f972d36551",
    "infoHashBuffer": {
      "type": "Buffer",
      "data": [
        239,
        95,
        42,
        132,
        52,
        247,
        98,
        145,
        163,
        114,
        87,
        233,
        61,
        64,
        134,
        249,
        114,
        211,
        101,
        81
      ]
    },
    "name": "MotoGP 2015 Round 02 - MotoGP RACE - Austin 720p",
    "announce": [
      "udp://exodus.desync.com:6969",
      "udp://open.demonii.com:1337",
      "udp://tracker.coppersurfer.tk:6969",
      "udp://tracker.openbittorrent.com:80"
    ],
    "urlList": []
  },
  "previous": 61,
  "peers": 2,
  "last_updated": "2016-12-25T17:38:02.255Z"
}